<?xml version="1.0" encoding="UTF-8" standalone="no"?>
<svg width="208px" height="290px" viewBox="0 0 208 290" version="1.1" xmlns="http://www.w3.org/2000/svg" xmlns:xlink="http://www.w3.org/1999/xlink" xmlns:sketch="http://www.bohemiancoding.com/sketch/ns">
    <!-- Generator: Sketch 3.2.2 (9983) - http://www.bohemiancoding.com/sketch -->
    <title>trapnecklace</title>
    <desc>Created with Sketch.</desc>
    <defs>
        <linearGradient x1="50%" y1="0%" x2="50%" y2="100%" id="linearGradient-1">
            <stop stop-color="#FFFFFF" stop-opacity="0.5" offset="0%"></stop>
            <stop stop-color="#FFE500" stop-opacity="0.5" offset="100%"></stop>
        </linearGradient>
        <filter x="-50%" y="-50%" width="200%" height="200%" filterUnits="objectBoundingBox" id="filter-2">
            <feOffset dx="0" dy="2" in="SourceAlpha" result="shadowOffsetOuter1"></feOffset>
            <feGaussianBlur stdDeviation="2" in="shadowOffsetOuter1" result="shadowBlurOuter1"></feGaussianBlur>
            <feColorMatrix values="0 0 0 0 0   0 0 0 0 0   0 0 0 0 0  0 0 0 0.35 0" in="shadowBlurOuter1" type="matrix" result="shadowMatrixOuter1"></feColorMatrix>
            <feMerge>
                <feMergeNode in="shadowMatrixOuter1"></feMergeNode>
                <feMergeNode in="SourceGraphic"></feMergeNode>
            </feMerge>
        </filter>
        <filter x="-50%" y="-50%" width="200%" height="200%" filterUnits="objectBoundingBox" id="filter-3">
            <feOffset dx="0" dy="2" in="SourceAlpha" result="shadowOffsetOuter1"></feOffset>
            <feGaussianBlur stdDeviation="2" in="shadowOffsetOuter1" result="shadowBlurOuter1"></feGaussianBlur>
            <feColorMatrix values="0 0 0 0 0   0 0 0 0 0   0 0 0 0 0  0 0 0 0.35 0" in="shadowBlurOuter1" type="matrix" result="shadowMatrixOuter1"></feColorMatrix>
            <feMerge>
                <feMergeNode in="shadowMatrixOuter1"></feMergeNode>
                <feMergeNode in="SourceGraphic"></feMergeNode>
            </feMerge>
        </filter>
    </defs>
    <g id="Page-1" stroke="none" stroke-width="1" fill="none" fill-rule="evenodd" sketch:type="MSPage">
        <g id="trapnecklace" sketch:type="MSLayerGroup" transform="translate(3.000000, 1.000000)">
            <g id="Page-1" sketch:type="MSShapeGroup">
                <g id="Artboard-1">
                    <g id="noun_24632_cc">
                        <g id="Shape">
                            <g id="path-2-link" stroke="#979797" fill="#F2EECC">
                                <path d="M63.5344389,185.722005 C61.7231852,185.722005 59.9059473,184.830578 58.5435175,183.055173 C57.6199377,181.845911 56.6923684,180.59692 55.7947207,179.308199 C53.2533802,175.725108 53.5326484,170.249907 56.4031264,167.081492 C59.2736043,163.910593 63.6401618,164.255742 66.1795075,167.843799 C66.9494898,168.948772 67.737425,170.004082 68.5233654,171.042011 C71.1784079,174.493499 71.098617,179.978631 68.3378516,183.288582 C66.9993591,184.912519 65.261912,185.722005 63.5344389,185.722005 L63.5344389,185.722005 L63.5344389,185.722005 Z M52.3617168,168.196397 C50.1475191,168.196397 47.9552639,166.858014 46.6167714,164.36748 C45.8866845,163.016683 45.162582,161.636089 44.4424691,160.223213 C42.397827,156.195651 43.3493336,150.832189 46.5768759,148.262196 C49.7964391,145.684755 54.071237,146.881602 56.1358268,150.924063 C56.7841279,152.202851 57.4424029,153.454326 58.1046675,154.693384 C60.2390743,158.653903 59.4052593,164.034748 56.2235968,166.713995 C55.0406966,167.709711 53.7002093,168.196397 52.3617168,168.196397 L52.3617168,168.196397 L52.3617168,168.196397 Z M43.2416159,148.882967 C40.7421657,148.882967 38.3324802,147.174605 37.0977159,144.232151 C36.5052684,142.811827 35.9048418,141.369155 35.3283525,139.896686 C33.6088584,135.620815 34.981262,130.413787 38.3963129,128.25847 C41.8053795,126.105636 45.9744545,127.833862 47.6959434,132.10725 C48.2544798,133.490328 48.805037,134.848575 49.3655682,136.189441 C51.1349316,140.435515 49.8183816,145.674823 46.435247,147.889734 C45.4139234,148.557683 44.3207879,148.882967 43.2416159,148.882967 L43.2416159,148.882967 L43.2416159,148.882967 Z M35.5577514,128.593686 C32.8707925,128.593686 30.3134939,126.624601 29.1964211,123.334514 L27.6943573,118.884827 C26.2262045,114.46742 27.8978241,109.389513 31.4345561,107.55203 C34.9653039,105.714548 39.0126977,107.815237 40.4828452,112.232644 L41.9270607,116.508515 C43.4291245,120.906058 41.8073743,125.993897 38.2925848,127.883524 C37.3969318,128.360276 36.4673677,128.593686 35.5577514,128.593686 L35.5577514,128.593686 L35.5577514,128.593686 Z M28.9510641,107.715914 C26.1284607,107.715914 23.4734182,105.523351 22.4520945,102.009786 L21.1475132,97.4930562 C19.8728534,92.9738431 21.7619032,88.0300224 25.3564836,86.4333991 C28.9570484,84.8094621 32.918667,87.1857737 34.2013059,91.6925715 L35.4580127,96.0702491 C36.7705732,100.569598 34.9194241,105.543215 31.3268384,107.179568 C30.5408979,107.532166 29.7489732,107.715914 28.9510641,107.715914 L28.9510641,107.715914 L28.9510641,107.715914 Z M23.1422859,86.4532638 C20.2219386,86.4532638 17.4930895,84.1191646 16.5535516,80.4417169 L15.400573,75.8728419 C14.2555735,71.3039669 16.2862521,66.4495373 19.9366861,65.0068654 C23.5552039,63.5840581 27.4729375,66.1242532 28.6099579,70.6931282 L29.7370045,75.1428151 C30.9039466,79.6918255 28.9091739,84.5859845 25.2667189,86.0485211 C24.5625641,86.3315926 23.8404564,86.4532638 23.1422859,86.4532638 L23.1422859,86.4532638 L23.1422859,86.4532638 Z M17.9518873,64.9646528 C14.9397805,64.9646528 12.1550778,62.4666702 11.2893464,58.6675513 L10.2600437,54.088744 C9.22874619,49.4875889 11.3611582,44.6952364 15.0554773,43.4040326 C18.7378277,42.1153118 22.5598123,44.7871104 23.5990889,49.3957148 L24.6204125,53.9149281 C25.6596891,58.5260155 23.5252823,63.3183681 19.8509109,64.6269535 C19.2145784,64.8529141 18.5822354,64.9646528 17.9518873,64.9646528 L17.9518873,64.9646528 L17.9518873,64.9646528 Z M13.250208,43.2947768 C10.1682841,43.2947768 7.36163892,40.6974707 6.54976642,36.7965454 L5.60823369,32.1755256 C4.65872187,27.5371244 6.89685687,22.8242304 10.6071341,21.6447654 C14.3253905,20.4479188 18.0875318,23.2711856 19.0290645,27.9021378 L19.9626182,32.4412156 C20.9201091,37.0721677 18.6959375,41.8148587 14.9976289,43.0117052 C14.4051814,43.1929703 13.8286921,43.2947768 13.250208,43.2947768 L13.250208,43.2947768 L13.250208,43.2947768 Z M10.4455576,20.8849417 C14.1697982,19.7973508 16.4797451,15.146534 15.6120189,10.4758526 L15.1911219,8.23114444 C14.3253905,3.57039535 10.6390505,0.665186804 6.87491437,1.7527777 C3.14867892,2.84036859 0.838732104,7.48870227 1.70446347,12.1618668 L2.12735529,14.4165073 C2.87340029,18.4068236 5.72193574,21.1183516 8.85971324,21.1183516 C9.38832801,21.1183516 9.90896369,21.0364099 10.4455576,20.8849417 L10.4455576,20.8849417 L10.4455576,20.8849417 Z M133.848183,183.2861 C131.091407,179.976148 131.003637,174.491015 133.6507,171.039528 C134.44063,170.001599 135.23455,168.946288 135.996553,167.841315 C138.539888,164.255742 142.910435,163.908111 145.782908,167.079008 C148.651391,170.244942 148.920685,175.720141 146.399293,179.305715 C145.481697,180.594436 144.556123,181.840944 143.642517,183.05269 C142.268118,184.828095 140.456865,185.719523 138.639627,185.719523 C136.918138,185.722005 135.178696,184.912519 133.848183,183.2861 L133.848183,183.2861 L133.848183,183.2861 Z M145.954458,166.711512 C142.772796,164.032264 141.934991,158.651421 144.071393,154.690902 C144.745626,153.451842 145.391932,152.200368 146.050207,150.92158 C148.106818,146.879119 152.3876,145.682272 155.601179,148.259713 C158.830716,150.829705 159.776238,156.193168 157.733591,160.220729 C157.011483,161.633605 156.287381,163.014199 155.557294,164.364998 C154.216807,166.855531 152.03652,168.193914 149.814344,168.193914 C148.477846,168.196397 147.139353,167.709711 145.954458,166.711512 L145.954458,166.711512 L145.954458,166.711512 Z M155.748792,147.887251 C152.347705,145.67234 151.039134,140.433032 152.808497,136.186958 C153.365039,134.848575 153.919586,133.487845 154.480117,132.104767 C156.195621,127.831379 160.37866,126.103153 163.779747,128.255987 C167.200783,130.408821 168.571191,135.618332 166.849703,139.894203 C166.269224,141.366671 165.674781,142.809343 165.078344,144.229668 C163.841585,147.174605 161.4319,148.880484 158.930455,148.880484 C157.855272,148.882967 156.764132,148.557683 155.748792,147.887251 L155.748792,147.887251 L155.748792,147.887251 Z M163.891455,127.883524 C160.37866,125.993897 158.746936,120.906058 160.247005,116.508515 L161.693215,112.232644 C163.163363,107.815237 167.212751,105.714548 170.737515,107.55203 C174.276241,109.389513 175.95983,114.46742 174.481703,118.884827 L172.989613,123.334514 C171.862566,126.622117 169.303273,128.593686 166.618309,128.593686 C165.710687,128.593686 164.785113,128.360276 163.891455,127.883524 L163.891455,127.883524 L163.891455,127.883524 Z M170.857201,107.177085 C167.260626,105.543215 165.413466,100.567115 166.728021,96.067766 L167.978744,91.6900884 C169.267367,87.1832906 173.215022,84.806979 176.817582,86.430916 C180.430115,88.0275393 182.305202,92.97136 181.038521,97.4905731 L179.73394,102.007303 C178.710621,105.523351 176.049594,107.713431 173.224996,107.713431 C172.435066,107.715914 171.625188,107.532166 170.857201,107.177085 L170.857201,107.177085 L170.857201,107.177085 Z M176.915326,86.046038 C173.274866,84.5835014 171.270119,79.6893424 172.44504,75.1403321 L173.568097,70.6906451 C174.709107,66.1217701 178.618862,63.581575 182.243364,65.0043823 C185.893798,66.4470542 187.922482,71.3014838 186.777482,75.8703588 L185.622509,80.4392338 C184.682971,84.1166816 181.958111,86.4507807 179.037764,86.4507807 C178.335604,86.4532638 177.613496,86.3315926 176.915326,86.046038 L176.915326,86.046038 L176.915326,86.046038 Z M182.329139,64.6294365 C178.652773,63.3208512 176.516371,58.5260155 177.553653,53.9174112 L178.578966,49.3981979 C179.618243,44.7895935 183.444217,42.1177949 187.120583,43.4065157 C190.816897,44.6977195 192.947314,49.490072 191.918011,54.091227 L190.888709,58.6700344 C190.014998,62.4691532 187.242264,64.9671359 184.222178,64.9671359 C183.601804,64.9646528 182.971456,64.8529141 182.329139,64.6294365 L182.329139,64.6294365 L182.329139,64.6294365 Z M187.1904,43.0117052 C183.480123,41.8148587 181.255951,37.0721677 182.221421,32.4412156 L183.146996,27.9021378 C184.090523,23.2711856 187.862638,20.4479188 191.574911,21.6447654 C195.277209,22.8242304 197.517338,27.5371244 196.577801,32.1755256 L195.634273,36.7965454 C194.82639,40.6949877 192.009771,43.2947768 188.927847,43.2947768 C188.355347,43.2947768 187.774868,43.1929703 187.1904,43.0117052 L187.1904,43.0117052 L187.1904,43.0117052 Z M193.312358,21.1183516 C196.462104,21.1183516 199.308644,18.4068236 200.056684,14.4165073 L200.481571,12.1618668 C201.339323,7.48870227 199.033366,2.84036859 195.309125,1.7527777 C191.535015,0.665186804 187.852665,3.57039535 186.982944,8.23114444 L186.562047,10.4758526 C185.694321,15.146534 188.012246,19.7973508 191.732498,20.8849417 C192.265102,21.0364099 192.797706,21.1183516 193.312358,21.1183516 L193.312358,21.1183516 L193.312358,21.1183516 Z" id="path-2"></path>
                            </g>
                            <g id="path-2-link" transform="translate(1.000000, 1.000000)" filter="url(#filter-2)" fill="url(#linearGradient-1)">
                                <path d="M62.5344389,184.722005 C60.7231852,184.722005 58.9059473,183.830578 57.5435175,182.055173 C56.6199377,180.845911 55.6923684,179.59692 54.7947207,178.308199 C52.2533802,174.725108 52.5326484,169.249907 55.4031264,166.081492 C58.2736043,162.910593 62.6401618,163.255742 65.1795075,166.843799 C65.9494898,167.948772 66.737425,169.004082 67.5233654,170.042011 C70.1784079,173.493499 70.098617,178.978631 67.3378516,182.288582 C65.9993591,183.912519 64.261912,184.722005 62.5344389,184.722005 L62.5344389,184.722005 L62.5344389,184.722005 Z M51.3617168,167.196397 C49.1475191,167.196397 46.9552639,165.858014 45.6167714,163.36748 C44.8866845,162.016683 44.162582,160.636089 43.4424691,159.223213 C41.397827,155.195651 42.3493336,149.832189 45.5768759,147.262196 C48.7964391,144.684755 53.071237,145.881602 55.1358268,149.924063 C55.7841279,151.202851 56.4424029,152.454326 57.1046675,153.693384 C59.2390743,157.653903 58.4052593,163.034748 55.2235968,165.713995 C54.0406966,166.709711 52.7002093,167.196397 51.3617168,167.196397 L51.3617168,167.196397 L51.3617168,167.196397 Z M42.2416159,147.882967 C39.7421657,147.882967 37.3324802,146.174605 36.0977159,143.232151 C35.5052684,141.811827 34.9048418,140.369155 34.3283525,138.896686 C32.6088584,134.620815 33.981262,129.413787 37.3963129,127.25847 C40.8053795,125.105636 44.9744545,126.833862 46.6959434,131.10725 C47.2544798,132.490328 47.805037,133.848575 48.3655682,135.189441 C50.1349316,139.435515 48.8183816,144.674823 45.435247,146.889734 C44.4139234,147.557683 43.3207879,147.882967 42.2416159,147.882967 L42.2416159,147.882967 L42.2416159,147.882967 Z M34.5577514,127.593686 C31.8707925,127.593686 29.3134939,125.624601 28.1964211,122.334514 L26.6943573,117.884827 C25.2262045,113.46742 26.8978241,108.389513 30.4345561,106.55203 C33.9653039,104.714548 38.0126977,106.815237 39.4828452,111.232644 L40.9270607,115.508515 C42.4291245,119.906058 40.8073743,124.993897 37.2925848,126.883524 C36.3969318,127.360276 35.4673677,127.593686 34.5577514,127.593686 L34.5577514,127.593686 L34.5577514,127.593686 Z M27.9510641,106.715914 C25.1284607,106.715914 22.4734182,104.523351 21.4520945,101.009786 L20.1475132,96.4930562 C18.8728534,91.9738431 20.7619032,87.0300224 24.3564836,85.4333991 C27.9570484,83.8094621 31.918667,86.1857737 33.2013059,90.6925715 L34.4580127,95.0702491 C35.7705732,99.5695976 33.9194241,104.543215 30.3268384,106.179568 C29.5408979,106.532166 28.7489732,106.715914 27.9510641,106.715914 L27.9510641,106.715914 L27.9510641,106.715914 Z M22.1422859,85.4532638 C19.2219386,85.4532638 16.4930895,83.1191646 15.5535516,79.4417169 L14.400573,74.8728419 C13.2555735,70.3039669 15.2862521,65.4495373 18.9366861,64.0068654 C22.5552039,62.5840581 26.4729375,65.1242532 27.6099579,69.6931282 L28.7370045,74.1428151 C29.9039466,78.6918255 27.9091739,83.5859845 24.2667189,85.0485211 C23.5625641,85.3315926 22.8404564,85.4532638 22.1422859,85.4532638 L22.1422859,85.4532638 L22.1422859,85.4532638 Z M16.9518873,63.9646528 C13.9397805,63.9646528 11.1550778,61.4666702 10.2893464,57.6675513 L9.26004369,53.088744 C8.22874619,48.4875889 10.3611582,43.6952364 14.0554773,42.4040326 C17.7378277,41.1153118 21.5598123,43.7871104 22.5990889,48.3957148 L23.6204125,52.9149281 C24.6596891,57.5260155 22.5252823,62.3183681 18.8509109,63.6269535 C18.2145784,63.8529141 17.5822354,63.9646528 16.9518873,63.9646528 L16.9518873,63.9646528 L16.9518873,63.9646528 Z M12.250208,42.2947768 C9.16828414,42.2947768 6.36163892,39.6974707 5.54976642,35.7965454 L4.60823369,31.1755256 C3.65872187,26.5371244 5.89685687,21.8242304 9.60713414,20.6447654 C13.3253905,19.4479188 17.0875318,22.2711856 18.0290645,26.9021378 L18.9626182,31.4412156 C19.9201091,36.0721677 17.6959375,40.8148587 13.9976289,42.0117052 C13.4051814,42.1929703 12.8286921,42.2947768 12.250208,42.2947768 L12.250208,42.2947768 L12.250208,42.2947768 Z M9.44555755,19.8849417 C13.1697982,18.7973508 15.4797451,14.146534 14.6120189,9.47585259 L14.1911219,7.23114444 C13.3253905,2.57039535 9.63905051,-0.334813196 5.87491437,0.752777696 C2.14867892,1.84036859 -0.161267896,6.48870227 0.704463468,11.1618668 L1.12735529,13.4165073 C1.87340029,17.4068236 4.72193574,20.1183516 7.85971324,20.1183516 C8.38832801,20.1183516 8.90896369,20.0364099 9.44555755,19.8849417 L9.44555755,19.8849417 L9.44555755,19.8849417 Z M132.848183,182.2861 C130.091407,178.976148 130.003637,173.491015 132.6507,170.039528 C133.44063,169.001599 134.23455,167.946288 134.996553,166.841315 C137.539888,163.255742 141.910435,162.908111 144.782908,166.079008 C147.651391,169.244942 147.920685,174.720141 145.399293,178.305715 C144.481697,179.594436 143.556123,180.840944 142.642517,182.05269 C141.268118,183.828095 139.456865,184.719523 137.639627,184.719523 C135.918138,184.722005 134.178696,183.912519 132.848183,182.2861 L132.848183,182.2861 L132.848183,182.2861 Z M144.954458,165.711512 C141.772796,163.032264 140.934991,157.651421 143.071393,153.690902 C143.745626,152.451842 144.391932,151.200368 145.050207,149.92158 C147.106818,145.879119 151.3876,144.682272 154.601179,147.259713 C157.830716,149.829705 158.776238,155.193168 156.733591,159.220729 C156.011483,160.633605 155.287381,162.014199 154.557294,163.364998 C153.216807,165.855531 151.03652,167.193914 148.814344,167.193914 C147.477846,167.196397 146.139353,166.709711 144.954458,165.711512 L144.954458,165.711512 L144.954458,165.711512 Z M154.748792,146.887251 C151.347705,144.67234 150.039134,139.433032 151.808497,135.186958 C152.365039,133.848575 152.919586,132.487845 153.480117,131.104767 C155.195621,126.831379 159.37866,125.103153 162.779747,127.255987 C166.200783,129.408821 167.571191,134.618332 165.849703,138.894203 C165.269224,140.366671 164.674781,141.809343 164.078344,143.229668 C162.841585,146.174605 160.4319,147.880484 157.930455,147.880484 C156.855272,147.882967 155.764132,147.557683 154.748792,146.887251 L154.748792,146.887251 L154.748792,146.887251 Z M162.891455,126.883524 C159.37866,124.993897 157.746936,119.906058 159.247005,115.508515 L160.693215,111.232644 C162.163363,106.815237 166.212751,104.714548 169.737515,106.55203 C173.276241,108.389513 174.95983,113.46742 173.481703,117.884827 L171.989613,122.334514 C170.862566,125.622117 168.303273,127.593686 165.618309,127.593686 C164.710687,127.593686 163.785113,127.360276 162.891455,126.883524 L162.891455,126.883524 L162.891455,126.883524 Z M169.857201,106.177085 C166.260626,104.543215 164.413466,99.5671145 165.728021,95.067766 L166.978744,90.6900884 C168.267367,86.1832906 172.215022,83.806979 175.817582,85.430916 C179.430115,87.0275393 181.305202,91.97136 180.038521,96.4905731 L178.73394,101.007303 C177.710621,104.523351 175.049594,106.713431 172.224996,106.713431 C171.435066,106.715914 170.625188,106.532166 169.857201,106.177085 L169.857201,106.177085 L169.857201,106.177085 Z M175.915326,85.046038 C172.274866,83.5835014 170.270119,78.6893424 171.44504,74.1403321 L172.568097,69.6906451 C173.709107,65.1217701 177.618862,62.581575 181.243364,64.0043823 C184.893798,65.4470542 186.922482,70.3014838 185.777482,74.8703588 L184.622509,79.4392338 C183.682971,83.1166816 180.958111,85.4507807 178.037764,85.4507807 C177.335604,85.4532638 176.613496,85.3315926 175.915326,85.046038 L175.915326,85.046038 L175.915326,85.046038 Z M181.329139,63.6294365 C177.652773,62.3208512 175.516371,57.5260155 176.553653,52.9174112 L177.578966,48.3981979 C178.618243,43.7895935 182.444217,41.1177949 186.120583,42.4065157 C189.816897,43.6977195 191.947314,48.490072 190.918011,53.091227 L189.888709,57.6700344 C189.014998,61.4691532 186.242264,63.9671359 183.222178,63.9671359 C182.601804,63.9646528 181.971456,63.8529141 181.329139,63.6294365 L181.329139,63.6294365 L181.329139,63.6294365 Z M186.1904,42.0117052 C182.480123,40.8148587 180.255951,36.0721677 181.221421,31.4412156 L182.146996,26.9021378 C183.090523,22.2711856 186.862638,19.4479188 190.574911,20.6447654 C194.277209,21.8242304 196.517338,26.5371244 195.577801,31.1755256 L194.634273,35.7965454 C193.82639,39.6949877 191.009771,42.2947768 187.927847,42.2947768 C187.355347,42.2947768 186.774868,42.1929703 186.1904,42.0117052 L186.1904,42.0117052 L186.1904,42.0117052 Z M192.312358,20.1183516 C195.462104,20.1183516 198.308644,17.4068236 199.056684,13.4165073 L199.481571,11.1618668 C200.339323,6.48870227 198.033366,1.84036859 194.309125,0.752777696 C190.535015,-0.334813196 186.852665,2.57039535 185.982944,7.23114444 L185.562047,9.47585259 C184.694321,14.146534 187.012246,18.7973508 190.732498,19.8849417 C191.265102,20.0364099 191.797706,20.1183516 192.312358,20.1183516 L192.312358,20.1183516 L192.312358,20.1183516 Z" id="path-2"></path>
                            </g>
                        </g>
                    </g>
                    <g id="noun_62028_cc" transform="translate(37.000000, 176.000000)">
                        <g id="Shape">
                            <g id="path-3-link" stroke="#979797" fill="#F2EECC">
                                <path d="M0,26.0168544 L18.6077143,1.08082557e-14 L110.7688,1.08082557e-14 L129.371806,26.0168544 L64.6859028,107.310528 L0,26.0168544 L0,26.0168544 Z M63.3217975,91.0156606 L63.3217975,28.8589824 L38.5920918,28.8589824 L63.3217975,91.0156606 L63.3217975,91.0156606 Z M70.1988345,90.0433154 L118.884363,28.8589824 L94.5408141,28.8589824 L70.1988345,90.0433154 L70.1988345,90.0433154 Z M119.193602,22.87656 L108.217971,7.5290688 L97.9173278,22.87656 L119.193602,22.87656 L119.193602,22.87656 Z M60.9232327,22.87656 L49.9554497,7.5408192 L39.6642252,22.87656 L60.9232327,22.87656 L60.9232327,22.87656 Z M31.7778445,22.87656 L20.7990733,7.5246624 L10.4529078,22.87656 L31.7778445,22.87656 L31.7778445,22.87656 Z M90.0293773,22.8750912 L79.0820009,7.5687264 L68.8111831,22.8750912 L90.0293773,22.8750912 L90.0293773,22.8750912 Z" id="path-3"></path>
                            </g>
                            <g id="path-3-link" filter="url(#filter-3)" fill="url(#linearGradient-1)">
                                <path d="M0,26.0168544 L18.6077143,0 L110.7688,0 L129.371806,26.0168544 L64.6859028,107.310528 L0,26.0168544 L0,26.0168544 Z M63.3217975,91.0156606 L63.3217975,28.8589824 L38.5920918,28.8589824 L63.3217975,91.0156606 L63.3217975,91.0156606 Z M70.1988345,90.0433154 L118.884363,28.8589824 L94.5408141,28.8589824 L70.1988345,90.0433154 L70.1988345,90.0433154 Z M119.193602,22.87656 L108.217971,7.5290688 L97.9173278,22.87656 L119.193602,22.87656 L119.193602,22.87656 Z M60.9232327,22.87656 L49.9554497,7.5408192 L39.6642252,22.87656 L60.9232327,22.87656 L60.9232327,22.87656 Z M31.7778445,22.87656 L20.7990733,7.5246624 L10.4529078,22.87656 L31.7778445,22.87656 L31.7778445,22.87656 Z M90.0293773,22.8750912 L79.0820009,7.5687264 L68.8111831,22.8750912 L90.0293773,22.8750912 L90.0293773,22.8750912 Z" id="path-3"></path>
                            </g>
                        </g>
                    </g>
                </g>
            </g>
        </g>
    </g>
</svg>