<?xml version="1.0" encoding="UTF-8" standalone="no"?>
<svg width="197px" height="197px" viewBox="0 0 197 197" version="1.1" xmlns="http://www.w3.org/2000/svg" xmlns:xlink="http://www.w3.org/1999/xlink" xmlns:sketch="http://www.bohemiancoding.com/sketch/ns">
    <!-- Generator: Sketch 3.2.2 (9983) - http://www.bohemiancoding.com/sketch -->
    <title>noun_13828_cc</title>
    <desc>Created with Sketch.</desc>
    <defs>
        <radialGradient cx="50%" cy="0%" fx="50%" fy="0%" r="100%" id="radialGradient-1">
            <stop stop-color="#FFFFFF" stop-opacity="0.5" offset="75.7374043%"></stop>
            <stop stop-color="#F3EFCD" stop-opacity="0.5" offset="100%"></stop>
        </radialGradient>
        <path d="M97.876,9.846 C49.334,9.846 9.846,49.334 9.846,97.874 C9.846,146.414 49.334,185.9 97.876,185.9 C146.414,185.9 185.902,146.412 185.902,97.872 C185.902,49.332 146.412,9.846 97.876,9.846 L97.876,9.846 Z M152.558,35.784 C165.436,47.14 174.75,62.426 178.622,79.78 C177.354,80.006 175.018,80.504 172.494,80.784 C168.888,64.976 160.404,51.038 148.696,40.632 C150.046,38.75 151.722,36.828 152.558,35.784 L152.558,35.784 Z M125.066,71.434 C126.632,67.284 133.886,52.442 137.422,45.172 C137.612,44.784 137.99,44.114 138.35,43.522 C152.51,54.082 162.388,70.048 164.962,88.36 C164.186,88.396 163.15,88.4 162.626,88.366 C154.56,87.838 138.218,86.788 133.836,86.094 C128.452,85.046 125.332,81.338 125.332,81.338 C125.332,81.338 125.324,81.342 125.32,81.348 C124.918,80.258 123.548,75.93 125.066,71.434 L125.066,71.434 Z M126.806,97.874 C126.806,113.828 113.826,126.808 97.872,126.808 C81.918,126.808 68.94,113.826 68.94,97.874 C68.94,81.918 81.92,68.938 97.874,68.938 C113.828,68.938 126.806,81.918 126.806,97.874 L126.806,97.874 Z M105.854,60.636 C105.854,60.636 101.446,66.052 96.142,65.564 C95.098,65.398 91.056,64.56 87.7,61.214 C84.674,57.972 73.554,43.382 68.6,36.99 C68.548,36.924 68.526,36.86 68.484,36.794 C77.372,32.506 87.342,30.106 97.872,30.106 C107.118,30.106 115.93,31.964 123.962,35.316 C119.604,42.114 105.854,60.636 105.854,60.636 L105.854,60.636 Z M97.874,15.116 C106.684,15.116 115.166,16.504 123.132,19.056 C121.854,21.488 120.618,23.894 120.236,24.638 C113.162,22.48 105.654,21.312 97.874,21.312 C88.348,21.312 79.24,23.064 70.83,26.242 C69.416,24.188 68.288,21.996 67.652,20.838 C77.016,17.156 87.202,15.116 97.874,15.116 L97.874,15.116 Z M54.826,45.536 C58.846,52.188 69.512,73.654 69.512,73.654 C69.512,73.654 72.376,78.936 69.584,83.474 L69.542,83.544 C68.406,84.686 65.734,86.97 61.786,87.846 C57.424,88.654 41.118,90.19 33.068,90.928 C32.478,90.98 31.24,91.002 30.454,90.978 C32.298,72.714 41.4,56.592 54.826,45.536 L54.826,45.536 Z M39.34,39.368 C41.13,41.156 42.7,43.07 43.456,44.032 C32.964,54.632 25.566,68.282 22.672,83.534 C20.082,83.196 17.678,82.748 16.546,82.608 C19.666,65.884 27.792,50.922 39.34,39.368 L39.34,39.368 Z M43.412,160.158 C30.55,148.902 21.212,133.734 17.248,116.508 C19.596,116.382 22.128,116.304 23.55,116.27 C27.328,131.574 35.702,145.06 47.132,155.184 C45.632,157.214 43.932,159.36 43.412,160.158 L43.412,160.158 Z M70.508,123.624 C68.94,127.772 62.764,142.232 59.228,149.502 C58.868,150.238 57.802,152.022 57.544,152.292 C57.536,152.3 57.526,152.306 57.52,152.314 C43.332,141.778 33.412,125.832 30.804,107.526 C38.004,107.594 62.496,109.874 62.496,109.874 C62.496,109.874 68.898,110.404 71.228,115.198 L71.358,115.55 C71.734,117.246 71.708,120.064 70.508,123.624 L70.508,123.624 Z M97.874,180.628 C89.206,180.628 80.852,179.292 73,176.82 C74.02,174.868 75.14,172.626 75.846,171.2 C82.824,173.294 90.214,174.432 97.874,174.432 C106.032,174.432 113.888,173.142 121.262,170.782 C122.134,173.418 122.976,175.74 123.402,176.596 C115.36,179.206 106.784,180.628 97.874,180.628 L97.874,180.628 Z M97.874,165.638 C88.7,165.638 79.958,163.804 71.974,160.502 C71.986,160.484 71.994,160.466 72.006,160.448 C75.35,154.848 89.718,134.42 89.718,134.42 C89.718,134.42 93.26,129.588 98.572,130.078 L98.568,129.872 C99.882,130.212 103.534,131.41 106.44,134.74 C109.232,138.184 118.616,152.178 123.114,158.896 C123.336,159.228 123.69,159.836 124.006,160.41 C115.96,163.776 107.134,165.638 97.874,165.638 L97.874,165.638 Z M138.38,152.202 C134.676,144.95 125.446,123.594 125.446,123.594 C125.446,123.594 122.844,118.07 125.944,113.734 L126.086,113.474 C128.356,108.8 133.708,108.128 133.708,108.128 C133.708,108.128 158.012,105.172 165.274,104.9 C163.286,124.238 153.162,141.164 138.38,152.202 L138.38,152.202 Z M152.864,159.698 C151.344,157.258 149.94,155.074 149.506,154.398 C161.166,143.742 169.516,129.528 172.84,113.474 C174.268,113.5 176.784,113.552 179.118,113.622 C175.612,131.8 166.164,147.86 152.864,159.698 L152.864,159.698 Z" id="path-2"></path>
    </defs>
    <g id="Page-1" stroke="none" stroke-width="1" fill="none" fill-rule="evenodd" sketch:type="MSPage">
        <g id="noun_13828_cc" sketch:type="MSLayerGroup" transform="translate(-1.000000, -1.000000)">
            <g id="Captions"></g>
            <g id="Your_Icon" transform="translate(2.000000, 2.000000)">
                <path d="M97.874,0.332 C44.004,0.332 0.332,44.004 0.332,97.874 C0.332,151.744 44.004,195.416 97.874,195.416 C151.744,195.416 195.416,151.744 195.416,97.874 C195.416,44.004 151.742,0.332 97.874,0.332 L97.874,0.332 Z M97.876,189.854 C47.156,189.854 5.894,148.592 5.894,97.874 C5.894,47.154 47.156,5.894 97.876,5.894 C148.592,5.894 189.854,47.154 189.854,97.874 C189.854,148.592 148.592,189.854 97.876,189.854 L97.876,189.854 Z" id="Shape" stroke="#323030" fill="#F3EFCD" sketch:type="MSShapeGroup"></path>
                <g id="Shape">
                    <use stroke="#323030" stroke-width="1" fill="#F3EFCD" sketch:type="MSShapeGroup" xlink:href="#path-2"></use>
                    <use stroke="none" fill="url(#radialGradient-1)" xlink:href="#path-2"></use>
                </g>
                <path d="M97.874,72.89 C84.098,72.89 72.894,84.098 72.894,97.872 C72.894,111.646 84.1,122.852 97.874,122.852 C111.648,122.852 122.854,111.646 122.854,97.872 C122.854,84.098 111.648,72.89 97.874,72.89 L97.874,72.89 Z M87.956,78.594 C90.38,78.594 92.35,80.566 92.35,82.99 C92.35,85.412 90.38,87.382 87.956,87.382 C85.532,87.382 83.56,85.412 83.56,82.99 C83.558,80.566 85.532,78.594 87.956,78.594 L87.956,78.594 Z M81.044,106.786 C78.62,106.786 76.648,104.818 76.648,102.394 C76.648,99.97 78.62,97.998 81.044,97.998 C83.466,97.998 85.436,99.97 85.436,102.394 C85.436,104.818 83.466,106.786 81.044,106.786 L81.044,106.786 Z M97.872,119.856 C95.448,119.856 93.476,117.888 93.476,115.464 C93.476,113.04 95.448,111.068 97.872,111.068 C100.296,111.068 102.266,113.04 102.266,115.464 C102.266,117.888 100.294,119.856 97.872,119.856 L97.872,119.856 Z M97.874,108.596 C91.95,108.596 87.15,103.798 87.15,97.874 C87.15,91.95 91.95,87.15 97.874,87.15 C103.798,87.15 108.598,91.95 108.598,97.874 C108.598,103.798 103.796,108.596 97.874,108.596 L97.874,108.596 Z M104.204,83.936 C104.204,81.512 106.174,79.54 108.598,79.54 C111.024,79.54 112.992,81.512 112.992,83.936 C112.992,86.36 111.024,88.33 108.598,88.33 C106.174,88.33 104.204,86.36 104.204,83.936 L104.204,83.936 Z M119.064,103.74 C119.064,106.164 117.094,108.136 114.67,108.136 C112.246,108.136 110.276,106.164 110.276,103.74 C110.276,101.316 112.246,99.346 114.67,99.346 C117.094,99.346 119.064,101.316 119.064,103.74 L119.064,103.74 Z" id="Shape" stroke="#323030" fill="#F3EFCD" sketch:type="MSShapeGroup"></path>
            </g>
        </g>
    </g>
</svg>