<?xml version="1.0" encoding="UTF-8" standalone="no"?>
<svg width="200px" height="200px" viewBox="0 0 200 200" version="1.1" xmlns="http://www.w3.org/2000/svg" xmlns:xlink="http://www.w3.org/1999/xlink" xmlns:sketch="http://www.bohemiancoding.com/sketch/ns">
    <!-- Generator: Sketch 3.2.2 (9983) - http://www.bohemiancoding.com/sketch -->
    <title>Artboard 1</title>
    <desc>Created with Sketch.</desc>
    <defs></defs>
    <g id="Page-1" stroke="none" stroke-width="1" fill="none" fill-rule="evenodd" sketch:type="MSPage">
        <g id="Artboard-1" sketch:type="MSArtboardGroup" fill="#000000">
            <g id="traplord" sketch:type="MSLayerGroup" transform="translate(36.000000, 3.000000)">
                <g id="Group" sketch:type="MSShapeGroup">
                    <path d="M64.294,0.264642857 C66.188,0.553163265 68.098,0.77005102 69.976,1.14612245 C76.156,2.38576531 81.79,4.9227551 87.03,8.37903061 C88.466,9.32617347 89.924,10.2494388 91.414,11.1090306 C99.97,16.0457143 104.434,23.5333163 105.4,33.2156633 C106.054,39.7680612 105.024,46.1433673 103.352,52.4510204 C103.228,52.9206122 103.128,53.3961735 103.032,53.8717347 C103,54.024949 103.014,54.1881122 103.004,54.4030102 C107.308,55.2466837 108.298,58.587551 108.63,62.1592347 C109.136,67.6192347 108.444,72.9797449 106.328,78.077602 C105.804,79.3411224 104.87,80.4335204 104.142,81.6134694 C103.982,81.8741327 103.79,82.1765816 103.782,82.4631122 C103.616,88.8662755 102.902,95.2017857 101.464,101.449745 C101.442,101.541276 101.462,101.642755 101.462,101.817857 C104.652,102.197908 106.946,103.787755 107.698,107.023163 C108.372,109.922296 107.236,112.22051 104.79,114.059082 C105.894,114.307806 106.798,114.747551 107.198,115.796173 C107.602,116.856735 107.42,117.833724 106.612,118.780867 C106.92,118.876378 107.15,118.95199 107.382,119.021633 C110.02,119.811582 111.624,121.538724 112.252,124.215 C112.342,124.60301 112.7,125.056684 113.058,125.233776 C117.374,127.354898 121.714,129.428265 126.136,131.557347 C125.756,132.478622 125.368,133.421786 124.896,134.567908 C120.48,132.432857 116.136,130.335612 111.73,128.206531 C110.756,129.959541 109.398,131.155408 107.418,131.734439 C108.212,132.548265 108.794,133.397908 108.57,134.565918 C108.342,135.757806 107.542,136.392551 106.43,136.806429 C109.162,138.382347 110.544,140.672602 110.06,143.776684 C109.554,147.022041 107.39,148.745204 104.244,149.36602 C105.366,151.636378 105.056,152.820306 103.01,153.974388 C104.594,155.438878 105.486,157.199847 105.396,159.380663 C105.336,160.825255 104.844,162.104694 103.936,163.220969 C102.032,165.55898 98.798,166.307143 96.072,165.053571 C93.364,163.807959 91.826,160.934694 92.308,158.017653 C92.858,154.684745 95.278,152.844184 99.52,152.474082 C99.574,151.771684 99.496,151.039439 99.72,150.412653 C99.932,149.819694 100.458,149.336173 100.846,148.806888 C97.556,146.677806 96.918,145.37449 97.11,141.028776 C96.392,141.233724 95.69,141.432704 94.902,141.657551 C96.628,143.71102 97.158,145.965459 95.812,148.363163 C94.472,150.748929 92.288,151.493112 89.52,151.097143 C90.866,153.441122 91.064,155.735357 89.396,157.874388 C87.754,159.979592 85.536,160.467092 82.91,159.705 C83.738,162.277806 83.41,164.546173 81.316,166.277296 C79.248,167.986531 76.966,167.900969 74.666,166.717041 C73.03,170.827959 69.29,171.681582 66.136,170.006173 C65.984,170.463827 65.834,170.9175 65.61,171.59602 C65.938,171.556224 66.212,171.560204 66.462,171.482602 C66.674,171.418929 66.846,171.196071 67.056,171.162245 C67.38,171.10852 67.782,171.052806 68.036,171.196071 C68.208,171.293571 68.228,171.733316 68.23,172.021837 C68.232,172.266582 68.11,172.511327 68.026,172.819745 C69.806,173.834541 69.718,175.336837 68.97,177.073929 C69.34,177.137602 69.628,177.189337 69.994,177.25301 C70.222,178.598112 68.82,180.243673 70.52,181.194796 C70.436,181.821582 70.34,182.299133 70.312,182.780663 C70.246,183.916837 70.104,185.064949 70.206,186.189184 C70.274,186.933367 70.618,187.701429 71.02,188.348112 C71.294,188.789847 71.882,189.038571 72.29,189.34699 C72.018,190.425459 71.16,190.540867 70.296,190.668214 C68.66,190.90898 67.22,191.611378 65.868,192.530663 C65.588,192.721684 65.216,192.771429 64.894,192.904745 C63.912,193.308673 62.908,193.666837 61.968,194.152347 C61.462,194.41301 61.092,194.494592 60.54,194.253827 C59.618,193.849898 58.634,193.587245 57.682,193.155459 L58.628,193.155459 C58.592,192.409286 58.996,191.768571 58.106,191.074133 C57.124,190.308061 57.076,187.030867 57.712,185.882755 C57.882,185.576327 57.934,185.210204 58.062,184.877908 C58.398,184.004388 58.494,183.071173 59.226,182.311071 C60.038,181.471378 59.73,180.287449 59.342,179.380102 C58.804,178.120561 59.148,176.841122 58.908,175.59352 C58.748,174.765765 58.718,173.908163 58.502,173.096327 C58.276,172.248673 58.666,171.566173 59.564,171.530357 C59.986,171.514439 60.41,171.560204 60.834,171.568163 C61.248,171.576122 61.662,171.570153 62.152,171.570153 C61.97,171.070714 61.822,170.658827 61.67,170.240969 C57.76,172.690408 53.534,170.611071 52.684,166.593673 C49.552,168.312857 47.364,168.294949 45.298,166.53199 C43.376,164.892398 42.936,162.620051 44.018,159.577653 C41.402,160.494949 39.062,160.158673 37.294,158.013673 C35.538,155.884592 35.616,153.55852 37.09,151.109082 C34.31,151.499082 32.086,150.758878 30.756,148.353214 C29.442,145.979388 29.918,143.730918 31.68,141.679439 C30.87,141.432704 30.11,141.201888 29.352,140.973061 C29.72,145.113827 29.002,146.620102 25.536,148.892449 C26.84,149.75602 27.246,150.945918 26.776,152.521837 C29.1,152.424337 31.122,153.049133 32.662,154.816071 C33.656,155.958214 34.17,157.295357 34.254,158.805612 C34.414,161.676888 32.556,164.390969 29.784,165.318214 C26.934,166.271327 23.79,165.180918 22.15,162.671786 C20.344,159.907959 20.784,156.895408 23.278,154.177347 C22.72,153.423214 21.942,152.772551 21.728,151.972653 C21.522,151.194643 21.896,150.265408 22.026,149.322245 C18.994,148.737245 16.838,146.912602 16.4,143.581684 C16.008,140.600969 17.372,138.382347 20.046,136.830306 C18.986,136.40051 18.158,135.791633 17.936,134.65148 C17.71,133.487449 18.182,132.568163 18.852,131.973214 C17.53,130.976327 16.21,129.981429 14.722,128.861173 C11.012,130.655969 7.016,132.592041 2.916,134.575867 C2.456,133.471531 2.064,132.528367 1.64,131.509592 C2.75,131.016122 3.824,130.570408 4.87,130.065 C7.798,128.648265 10.718,127.215612 13.624,125.753112 C13.878,125.625765 14.13,125.255663 14.166,124.971122 C14.562,121.77352 16.288,119.781735 19.422,118.969898 C19.542,118.938061 19.656,118.876378 19.846,118.798776 C19.16,117.901378 18.838,116.958214 19.256,115.891684 C19.676,114.817194 20.518,114.283929 21.75,114.098878 C19.288,112.331939 18.18,110.015816 18.764,107.136582 C19.354,104.237449 21.33,102.583929 24.214,101.917347 C23.928,99.9534184 23.528,98.0432143 23.394,96.1170918 C23.094,91.7853061 22.928,87.4455612 22.694,83.1097959 C22.676,82.7775 22.646,82.3317857 22.436,82.1387755 C20.356,80.2265816 19.382,77.7313776 18.672,75.1147959 C17.438,70.5681122 16.868,65.9438265 17.56,61.2538776 C17.756,59.9326531 18.22,58.607449 18.8,57.3976531 C19.636,55.652602 21.152,54.6736224 23.182,54.4567347 C22.69,52.4430612 22.162,50.5109694 21.748,48.5569898 C20.298,41.7280102 19.81,34.8870918 21.622,28.0362245 C23.276,21.7803061 26.734,16.750102 31.984,12.9237245 C33.268,11.9885204 34.524,11.0055612 35.728,9.97086735 C42.194,4.42132653 49.64,1.17994898 58.166,0.43377551 C58.386,0.413877551 58.598,0.328316327 58.814,0.272602041 C60.642,0.264642857 62.468,0.264642857 64.294,0.264642857 L64.294,0.264642857 Z M43.906,107.624082 C43.996,107.584286 44.086,107.5425 44.176,107.502704 C44.22,107.068929 44.236,106.631173 44.316,106.203367 C44.77,103.755918 45.02,101.244796 45.744,98.8789286 C47.576,92.897602 51.338,88.6653061 57.508,86.7590816 C59.398,86.1760714 61.108,86.2576531 62.654,87.5251531 C63.324,88.0743367 63.84,88.0564286 64.516,87.5152041 C65.672,86.5879592 66.962,86.1064286 68.514,86.4984184 C71.14,87.1630102 73.562,88.2156122 75.674,89.9208673 C79.216,92.7821939 81.218,96.5807143 82.268,100.902551 C82.768,102.96 83.026,105.077143 83.404,107.224133 C83.668,107.033112 83.948,106.871939 84.176,106.655051 C84.668,106.183469 85.164,105.709898 85.602,105.190561 C91.686,98.0034184 96.156,89.8711224 99.71,81.2115306 C100.282,79.8206633 100.846,78.3681122 101.048,76.8956633 C101.758,71.6963265 101.268,66.5507143 100.032,61.4588265 C99.358,58.6810714 99.296,55.8754592 99.872,53.0658673 C100.566,49.6712755 101.44,46.3045408 101.926,42.8820918 C102.542,38.5403571 102.72,34.1687755 101.278,29.8907143 C99.618,24.9659694 97.326,20.4491327 93.326,16.945102 C92.192,15.9521939 90.978,15.4467857 89.444,15.482602 C84.816,15.5920408 80.186,15.619898 75.556,15.677602 C75.23,15.6815816 74.902,15.677602 74.576,15.677602 C74.576,15.6179082 74.574,15.5582143 74.574,15.4985204 C78.994,14.6986224 83.416,13.8987245 87.836,13.0968367 C86.356,12.3705612 85.05,11.2602551 83.286,11.6005102 C79.098,12.4103571 74.894,13.1366327 70.728,14.04 C67.18,14.810051 63.644,15.2139796 59.992,15.1164796 C52.27,14.9115306 44.54,14.9572959 36.814,14.8518367 C35.636,14.8359184 34.78,15.2179592 33.982,16.0516837 C29.868,20.3496429 26.988,25.3718878 24.942,30.9154592 C24.03,33.3887755 23.646,35.8979082 23.742,38.5304082 C23.91,43.1626531 24.736,47.6755102 25.986,52.1187245 C26.876,55.2844898 26.998,58.4621939 26.17,61.6319388 C25.05,65.9179592 24.942,70.1980102 25.846,74.5297959 C28.014,84.9264796 32.696,94.1213265 39.292,102.392908 C40.736,104.209592 42.362,105.885 43.906,107.624082 L43.906,107.624082 Z M78.252,103.429592 C78.18,97.5358163 73.966,92.1036735 68.22,90.6431633 C67.788,90.5337245 67.176,90.6371939 66.802,90.879949 C64.174,92.5871939 63.028,92.6429082 60.48,90.9237245 C59.876,90.5158163 59.348,90.4521429 58.672,90.655102 C54.346,91.9504592 51.55,94.8416327 50.014,98.9664796 C49.054,101.543265 48.158,104.179745 48.65,107.005255 C49.354,111.046531 52.24,113.414388 56.392,113.406429 C56.696,113.406429 57.02,113.271122 57.3,113.131837 C61.48,111.036582 65.674,111.022653 69.9,112.992551 C70.204,113.133827 70.58,113.243265 70.902,113.20148 C74.718,112.700051 77.396,110.097398 77.968,106.332704 C78.114,105.369643 78.16,104.394643 78.252,103.429592 L78.252,103.429592 Z M54.612,161.497806 C56.154,160.325816 57.868,159.894031 59.76,160.403418 C61.666,160.916786 62.876,162.212143 63.662,164.130306 C64.26,162.160408 65.342,160.807347 67.13,160.09699 C68.914,159.388622 70.624,159.663214 72.28,160.604388 C73.684,157.134184 76.198,155.882602 79.802,156.756122 C78.336,152.710867 81.132,148.29949 86.438,148.995918 C85.264,147.181224 85.008,145.288929 85.89,143.338929 C86.77,141.398878 88.428,140.429847 90.478,140.065714 C89.976,139.291684 89.542,138.625102 89.07,137.898827 C86.764,141.677449 83.524,144.216429 79.468,145.7625 C75.996,147.085714 72.372,147.676684 68.688,147.90949 C63.244,148.251735 57.81,148.261684 52.446,147.043929 C46.052,145.591378 41,142.344031 38.002,136.350765 C37.948,136.241327 37.934,136.11 37.956,136.191582 C37.382,137.534694 36.836,138.814133 36.294,140.079643 C40.94,141.56602 42.07,144.0075 40.288,148.934235 C45.474,148.279592 48.454,152.870051 46.602,157.16801 C51.056,156.278571 52.584,157.098367 54.612,161.497806 L54.612,161.497806 Z M89.322,126.596786 C82.396,134.15602 73.856,137.839133 63.868,138.225153 C53.564,138.623112 45.622,133.67051 38.478,126.871378 C38.614,127.908061 38.816,128.902959 39.06,129.887908 C40.82,136.979541 44.926,141.924184 52.262,143.637398 C60.396,145.535663 68.588,145.460051 76.64,143.265306 C84.1,141.229745 89.13,134.472398 89.322,126.596786 L89.322,126.596786 Z M28.046,132.200051 C27.074,131.499643 26.192,130.864898 25.356,130.26398 C24.348,130.811173 23.316,131.372296 22.262,131.945357 C23.62,133.246684 23.538,134.657449 22.584,136.004541 C23.93,136.360714 25.25,136.708929 26.588,137.065102 C26.326,135.238469 26.786,133.575 28.046,132.200051 L28.046,132.200051 Z M98.526,132.198061 C99.79,133.598878 100.246,135.276276 99.998,137.019337 C101.336,136.675102 102.628,136.340816 103.942,136.002551 C102.834,134.585816 102.984,133.18699 104.196,131.92148 C103.132,131.348418 102.12,130.803214 101.176,130.295816 C100.336,130.898724 99.476,131.517551 98.526,132.198061 L98.526,132.198061 Z M23.508,57.7936224 C23.402,57.729949 23.298,57.6662755 23.192,57.602602 C22.746,57.9309184 22.178,58.1776531 21.886,58.607449 C21.476,59.2083673 21.164,59.9207143 20.998,60.6290816 C20.02,64.7897449 20.676,68.8887245 21.584,72.9817347 C21.306,67.8102551 22.748,62.8417347 23.508,57.7936224 L23.508,57.7936224 Z M102.71,57.7637755 C103.45,62.5472449 104.838,67.1655612 104.68,71.9888265 C105.342,69.0797449 105.758,66.1467857 105.44,63.1760204 C105.298,61.8428571 104.948,60.5176531 104.552,59.2302551 C104.328,58.5 103.806,57.8732143 102.71,57.7637755 L102.71,57.7637755 Z M41.55,156.789949 C42.852,156.803878 43.928,155.751276 43.914,154.475816 C43.902,153.236173 42.862,152.19949 41.612,152.179592 C40.328,152.159694 39.246,153.230204 39.256,154.511633 C39.266,155.763214 40.286,156.77602 41.55,156.789949 L41.55,156.789949 Z M29.848,124.455765 C28.596,124.465714 27.554,125.490459 27.536,126.730102 C27.518,127.999592 28.612,129.09 29.89,129.076071 C31.136,129.062143 32.18,128.025459 32.196,126.785816 C32.21,125.498418 31.148,124.445816 29.848,124.455765 L29.848,124.455765 Z M84.978,156.789949 C86.278,156.795918 87.346,155.733367 87.32,154.457908 C87.296,153.216276 86.248,152.187551 85.002,152.181582 C83.748,152.175612 82.708,153.184439 82.678,154.434031 C82.648,155.745306 83.66,156.78398 84.978,156.789949 L84.978,156.789949 Z M75.442,162.023112 C75.444,163.268724 76.468,164.309388 77.718,164.337245 C78.984,164.365102 80.096,163.274694 80.09,162.007194 C80.086,160.77352 79.042,159.722908 77.798,159.70102 C76.506,159.681122 75.44,160.729745 75.442,162.023112 L75.442,162.023112 Z M33.314,145.66301 C33.31,146.93051 34.302,147.955255 35.564,147.989082 C36.852,148.022908 37.916,146.978265 37.918,145.674949 C37.92,144.39949 36.94,143.386684 35.672,143.356837 C34.37,143.32301 33.316,144.353724 33.314,145.66301 L33.314,145.66301 Z M93.262,145.700816 C93.278,144.39949 92.232,143.344898 90.938,143.354847 C89.688,143.362806 88.648,144.391531 88.626,145.635153 C88.604,146.906633 89.69,147.997041 90.97,147.989082 C92.212,147.981122 93.246,146.950408 93.262,145.700816 L93.262,145.700816 Z M69.214,167.558724 C70.478,167.538827 71.502,166.518061 71.506,165.268469 C71.512,163.985051 70.444,162.952347 69.13,162.970255 C67.86,162.988163 66.848,163.99699 66.844,165.252551 C66.842,166.543929 67.904,167.578622 69.214,167.558724 L69.214,167.558724 Z M60.578,165.773878 C60.596,164.490459 59.524,163.40801 58.244,163.419949 C57.01,163.429898 55.95,164.476531 55.926,165.708214 C55.902,166.971735 56.996,168.064133 58.276,168.056173 C59.528,168.048214 60.562,167.023469 60.578,165.773878 L60.578,165.773878 Z M96.778,135.994592 C96.76,134.721122 95.744,133.734184 94.452,133.740153 C93.174,133.746122 92.138,134.762908 92.13,136.020459 C92.122,137.309847 93.2,138.346531 94.524,138.318673 C95.812,138.290816 96.794,137.27602 96.778,135.994592 L96.778,135.994592 Z M99.012,126.74602 C99.006,125.444694 97.952,124.425918 96.642,124.455765 C95.37,124.483622 94.394,125.488469 94.4,126.765918 C94.404,128.063265 95.478,129.111888 96.76,129.074082 C98.016,129.038265 99.018,128.001582 99.012,126.74602 L99.012,126.74602 Z M34.408,135.988622 C34.39,134.705204 33.386,133.728214 32.09,133.736173 C30.802,133.744133 29.808,134.739031 29.804,136.022449 C29.8,137.351633 30.828,138.346531 32.172,138.316684 C33.462,138.288827 34.426,137.285969 34.408,135.988622 L34.408,135.988622 Z M48.978,160.037296 C47.682,160.023367 46.672,160.992398 46.648,162.273827 C46.624,163.567194 47.584,164.58 48.87,164.617806 C50.2,164.657602 51.254,163.648776 51.258,162.33352 C51.262,161.056071 50.264,160.053214 48.978,160.037296 L48.978,160.037296 Z M23.222,119.198724 C23.826,119.590714 24.496,119.835459 24.878,120.31102 C25.812,121.467092 26.788,121.138776 27.778,120.667194 C27.164,119.837449 26.4,119.089286 25.998,118.179949 C25.582,117.238776 25.516,116.142398 25.276,115.016173 C24.912,114.988316 24.412,114.9525 23.866,114.910714 C24.81,116.958214 24.688,117.760102 23.222,119.198724 L23.222,119.198724 Z M101.076,115.038061 C101.288,117.181071 100.582,118.936071 98.79,120.472194 C99.7,120.613469 100.448,120.965663 100.968,120.754745 C101.796,120.420459 102.472,119.712092 103.212,119.160918 C101.81,117.710357 101.7,117.00398 102.604,114.906735 C102.094,114.95051 101.628,114.990306 101.076,115.038061 L101.076,115.038061 Z M29.264,114.389388 C28.548,115.463878 28.524,116.389133 29.18,117.262653 C29.732,117.998878 30.484,118.349082 31.548,118.124235 C30.776,116.862704 30.06,115.690714 29.264,114.389388 L29.264,114.389388 Z M97.216,114.305816 C96.542,115.658878 95.932,116.884592 95.27,118.215765 C96.336,118.205816 97.094,117.863571 97.548,117.021888 C98.04,116.112551 97.946,115.229082 97.216,114.305816 L97.216,114.305816 Z M35.324,128.4075 C34.844,129.215357 34.41,129.945612 33.974,130.677857 C34.728,131.161378 35.48,131.644898 36.288,132.162245 C35.96,130.882806 35.648,129.675 35.324,128.4075 L35.324,128.4075 Z" id="Shape"></path>
                    <path d="M56.744,51.4541327 C55.794,52.4032653 54.884,53.3145918 53.928,54.2696939 C47.998,48.5808673 41.472,48.0754592 34.422,52.279898 C33.628,51.2352551 32.85,50.2085204 32.07,49.1837755 C38.532,44.3445918 49.052,43.4153571 56.744,51.4541327 L56.744,51.4541327 Z" id="Shape"></path>
                    <path d="M94.906,49.1439796 C94.098,50.2105102 93.336,51.2153571 92.534,52.2739286 C85.53,48.0913776 79.002,48.5530102 73.098,54.2080102 C72.152,53.2648469 71.222,52.337602 70.29,51.4063776 C77.218,43.9446429 87.532,43.8968878 94.906,49.1439796 L94.906,49.1439796 Z" id="Shape"></path>
                    <path d="M73.81,78.3720918 C73.58,79.3033163 73.368,80.1768367 73.146,81.0503571 C73.116,81.1697449 73.042,81.2771939 72.952,81.4702041 C70.66,80.7638265 68.84,81.8303571 67.074,83.0620408 C64.528,84.8409184 61.812,85.1135204 59.192,83.469949 C56.712,81.9159184 54.222,80.9309694 51.24,81.8064796 C50.932,80.7240306 50.66,79.7689286 50.36,78.7083673 C52.168,78.1611735 53.988,78.0537245 55.762,78.4477041 C57.036,78.7302551 58.236,79.3709694 59.446,79.9042347 C60.128,80.2046939 60.742,80.652398 61.42,80.9588265 C62.5,81.4483163 63.578,81.3766837 64.6,80.7598469 C65.462,80.2385204 66.298,79.6694388 67.176,79.1739796 C69.252,78.0039796 71.444,77.717449 73.81,78.3720918 L73.81,78.3720918 Z" id="Shape"></path>
                    <path d="M81.248,63.7411224 C79.49,63.7570408 78.068,62.3741327 78.058,60.6390306 C78.048,58.9218367 79.49,57.4911735 81.222,57.4991327 C82.928,57.5070918 84.316,58.8641327 84.356,60.5654082 C84.396,62.3005102 83.002,63.7252041 81.248,63.7411224 L81.248,63.7411224 Z" id="Shape"></path>
                    <path d="M45.22,63.7411224 C43.46,63.7232143 42.108,62.3263776 42.138,60.5554592 C42.166,58.8521939 43.55,57.4991327 45.262,57.4971429 C46.998,57.4951531 48.434,58.9258163 48.42,60.645 C48.406,62.3741327 46.976,63.7590306 45.22,63.7411224 L45.22,63.7411224 Z" id="Shape"></path>
                    <path d="M72.126,103.371888 C71.85,105.707908 67.496,108.788112 64.392,109.126378 C61.024,109.4925 56.368,106.792347 55.268,103.620612 C60.958,105.405459 66.538,105.644235 72.126,103.371888 L72.126,103.371888 Z" id="Shape"></path>
                </g>
            </g>
        </g>
    </g>
</svg>